<svg width="103" height="103" viewBox="0 0 103 103" fill="none" xmlns="http://www.w3.org/2000/svg">
<path d="M100.421 43.2382L72.9464 3.72496C71.3224 1.39447 68.6571 0 65.8199 0H8.68364C3.89761 0 0 3.89688 0 8.68203V94.318C0 99.1031 3.89761 103 8.68364 103H65.8008C68.638 103 71.3033 101.606 72.9273 99.275L100.421 59.7618C103.86 54.8238 103.86 48.1857 100.421 43.2478M14.1479 17.8034C14.1479 15.8168 15.7624 14.2026 17.7494 14.2026H26.9393C27.9329 14.2026 28.7449 15.0049 28.7449 16.0078V28.6154C28.7449 29.6087 27.9424 30.4205 26.9393 30.4205H17.7494C15.7624 30.4205 14.1479 28.8064 14.1479 26.8197V17.813V17.8034ZM14.1479 38.8829C14.1479 36.8962 15.7624 35.2821 17.7494 35.2821H26.9393C27.9329 35.2821 28.7449 36.0844 28.7449 37.0873V49.6948C28.7449 50.6881 27.9424 51.5 26.9393 51.5H17.7494C15.7624 51.5 14.1479 49.8859 14.1479 47.8992V38.8924V38.8829ZM49.8282 86.9922C49.8282 87.9855 49.0258 88.7974 48.0227 88.7974H17.7494C15.7624 88.7974 14.1479 87.1832 14.1479 85.1966V79.4277C14.1479 77.441 15.7624 75.8269 17.7494 75.8269H48.0227C49.0162 75.8269 49.8282 76.6292 49.8282 77.632V87.0018V86.9922ZM49.8282 69.1506C49.8282 70.1439 49.0258 70.9558 48.0227 70.9558H17.7494C15.7624 70.9558 14.1479 69.3416 14.1479 67.355V59.9719C14.1479 57.9853 15.7624 56.3711 17.7494 56.3711H48.0227C49.0162 56.3711 49.8282 57.1734 49.8282 58.1763V69.1697V69.1506ZM85.1933 57.6701L64.6162 87.2501C63.938 88.2148 62.8394 88.7974 61.6548 88.7974H56.4962C55.5027 88.7974 54.6907 87.9951 54.6907 86.9922V37.0873C54.6907 36.0939 53.8882 35.2821 52.8852 35.2821H51.6242C50.6307 35.2821 49.8187 36.0844 49.8187 37.0873V47.8992C49.8187 49.8859 48.2042 51.5 46.2172 51.5H37.2088C35.2218 51.5 33.6073 49.8859 33.6073 47.8992V15.9982C33.6073 15.0049 34.4098 14.1931 35.4128 14.1931H61.6644C62.8394 14.1931 63.9475 14.7661 64.6258 15.7404L85.2028 45.3204C87.7821 49.0358 87.7821 53.9547 85.2028 57.6701" fill="#F1FF24"/>
</svg>
